<svg width="4096" height="4096" viewBox="0 0 4096 4096" fill="none" xmlns="http://www.w3.org/2000/svg">
<path d="M2637.86 1452.48L2638.56 1452.56C2638.18 1452.48 2637.83 1452.35 2637.45 1452.27C2623.25 1445.14 2608.92 1438.26 2594.48 1431.62C2478.64 1378.44 2388.01 1280.27 2355.56 1157C2352.27 1144.5 2349.39 1131.89 2346.9 1119.2C2337.82 1072.79 2334.43 1025.26 2340.22 978.328C2364.86 778.208 2512.73 683.568 2512.73 683.568H1599.26C1599.26 683.568 1747.14 778.208 1771.78 978.328C1777.56 1025.26 1774.17 1072.8 1765.09 1119.2C1762.6 1131.89 1759.71 1144.49 1756.43 1157C1723.97 1280.27 1633.35 1378.44 1517.51 1431.62C1503.05 1438.26 1488.73 1445.15 1474.54 1452.27C1474.16 1452.35 1473.82 1452.48 1473.43 1452.56L1474.13 1452.48C1021.31 1679.87 719.656 2163.98 761.064 2714.02C810.2 3366.76 1350.74 3886.11 2004.83 3911.22C2745.4 3939.66 3354.71 3347.73 3354.71 2613.49C3354.72 2105.5 3062.87 1665.9 2637.86 1452.48Z" fill="white"/>
<path d="M2510.83 472.4H1579.02C1520.7 472.4 1473.44 519.664 1473.44 577.984C1473.44 636.296 1520.7 683.56 1579.02 683.56H2510.83C2569.14 683.56 2616.42 636.296 2616.42 577.984C2616.42 519.664 2569.14 472.4 2510.83 472.4Z" fill="white"/>
<path d="M1599.26 683.56C1599.26 683.56 1659.92 722.656 1710.03 803.224H2401.97C2452.08 722.656 2512.74 683.56 2512.74 683.56H1599.26Z" fill="white"/>
<path d="M3073.2 2664.32C3077.32 2587.11 3072.75 2509.69 3059.58 2433.5C3028.23 2252.83 2865.17 2124.61 2682.28 2137.78C2398.56 2158.22 2104.12 2326.71 2011.14 2384.18C1988.82 2397.98 1966.08 2411.18 1942.38 2422.43C1627.69 2571.96 1383.78 2542.26 1217.92 2474.46C1124.06 2436.09 1021.46 2505.42 1021.34 2606.82V2609.22C1021.34 3198.99 1518.63 3672.62 2116.79 3633.63C2631.3 3600.1 3046.06 3179.21 3073.2 2664.32Z" fill="#007BFF"/>
<path d="M1463.79 3080.94C1534.48 3080.94 1591.78 3023.64 1591.78 2952.96C1591.78 2882.28 1534.48 2824.98 1463.79 2824.98C1393.11 2824.98 1335.81 2882.28 1335.81 2952.96C1335.81 3023.64 1393.11 3080.94 1463.79 3080.94Z" fill="white"/>
<path d="M1952.44 2753.73C1974.12 2753.73 1991.7 2736.15 1991.7 2714.46C1991.7 2692.78 1974.12 2675.2 1952.44 2675.2C1930.76 2675.2 1913.18 2692.78 1913.18 2714.46C1913.18 2736.15 1930.76 2753.73 1952.44 2753.73Z" fill="white"/>
<path d="M2257.84 3389.26C2378.32 3389.26 2475.99 3291.59 2475.99 3171.11C2475.99 3050.63 2378.32 2952.96 2257.84 2952.96C2137.36 2952.96 2039.69 3050.63 2039.69 3171.11C2039.69 3291.59 2137.36 3389.26 2257.84 3389.26Z" fill="white"/>
<path d="M2648.33 2646.83C2703.75 2646.83 2748.67 2601.91 2748.67 2546.49C2748.67 2491.07 2703.75 2446.14 2648.33 2446.14C2592.91 2446.14 2547.98 2491.07 2547.98 2546.49C2547.98 2601.91 2592.91 2646.83 2648.33 2646.83Z" fill="white"/>
<path d="M1488.33 1649.51C1488.33 1649.51 1200.98 1711.68 1138.34 2072.91C1131.52 2112.17 1158.34 2149.86 1197.57 2156.85C1259.36 2167.86 1358.1 2168.68 1470.96 2106.61C1521.62 2078.75 1566.1 2041.09 1604.79 1998.12C1652.24 1945.47 1710.1 1866.04 1717.78 1785.37C1725.35 1705.58 1658.18 1638.79 1578.03 1638.77C1551.18 1638.77 1520.37 1641.45 1488.33 1649.51Z" fill="#007BFF"/>
</svg>
